<svg width="325" height="250" viewBox="0 0 325 250" fill="none" xmlns="http://www.w3.org/2000/svg">
<g filter="url(#filter0_d)">
<path fill-rule="evenodd" clip-rule="evenodd" d="M100.407 60.4524C110.487 54.8513 123.497 59.2495 134.292 63.3036C144.351 67.0814 150.26 76.9883 159.415 82.6129C171.375 89.9605 193.234 87.7001 196.301 101.398C199.488 115.637 175.702 122.583 171.492 136.554C167.729 149.045 180.349 163.456 174.145 174.931C168.091 186.129 153.416 189.508 141.108 192.752C129.11 195.915 116.934 184.415 104.635 182.774C91.3229 180.997 73.6624 194.031 66.3395 182.774C58.4463 170.64 73.9058 154.191 70.0198 140.246C66.3037 126.912 41.6006 120.985 45.4113 107.677C49.3326 93.9827 73.2516 100.498 84.0588 91.218C93.0222 83.5212 90.0802 66.1912 100.407 60.4524Z" fill="#D2D7FF"/>
<path d="M100.65 60.8895C105.556 58.1633 111.202 57.8544 117.005 58.7514C122.81 59.6488 128.718 61.7443 134.116 63.7717C139.045 65.6227 142.975 68.9814 146.85 72.6297C147.446 73.1909 148.041 73.7594 148.638 74.33C151.904 77.4493 155.236 80.6324 159.154 83.0389C162.205 84.9137 165.869 86.1649 169.661 87.2038C171.47 87.6994 173.317 88.1489 175.146 88.594L175.415 88.6596C177.335 89.1269 179.232 89.5917 181.058 90.1053C188.408 92.1731 194.349 94.9682 195.813 101.507C196.574 104.907 195.734 107.875 193.941 110.663C192.136 113.468 189.379 116.068 186.343 118.698C185.612 119.332 184.865 119.967 184.112 120.606C181.757 122.608 179.35 124.654 177.235 126.82C174.439 129.683 172.099 132.806 171.013 136.41C170.042 139.633 170.134 142.961 170.698 146.29C171.19 149.19 172.047 152.124 172.888 155.008C173.011 155.427 173.133 155.845 173.254 156.262C175.172 162.893 176.696 169.162 173.705 174.694C170.752 180.156 165.681 183.74 159.769 186.367C154.392 188.756 148.372 190.332 142.688 191.821C142.115 191.971 141.546 192.12 140.98 192.269C135.165 193.802 129.268 191.793 123.186 189.107C122.045 188.604 120.898 188.076 119.745 187.546C114.807 185.274 109.761 182.954 104.701 182.278C101.286 181.822 97.6181 182.319 93.9581 183.119C92.1254 183.52 90.2844 183.999 88.471 184.478C88.284 184.527 88.0973 184.577 87.9109 184.626C86.2869 185.056 84.6884 185.479 83.1278 185.842C79.6397 186.655 76.4049 187.154 73.6071 186.778C70.8399 186.406 68.5004 185.179 66.7586 182.501C62.9601 176.662 64.7481 169.752 67.1525 162.343C67.3527 161.726 67.5569 161.106 67.762 160.484C68.776 157.406 69.8091 154.27 70.4634 151.171C71.2515 147.438 71.503 143.706 70.5014 140.112C69.537 136.651 67.2213 133.705 64.4154 131.041C62.2211 128.957 59.6904 127.014 57.2255 125.121C56.5427 124.597 55.8649 124.076 55.2007 123.558C52.1167 121.15 49.3263 118.786 47.5362 116.219C45.7624 113.676 44.9902 110.964 45.8919 107.815C46.825 104.556 48.9391 102.494 51.8055 101.082C54.694 99.6582 58.3221 98.9073 62.2313 98.286C63.2573 98.123 64.3032 97.9688 65.3579 97.8133C68.2935 97.3806 71.297 96.9379 74.1279 96.2655C77.9826 95.3499 81.5943 93.9933 84.3846 91.5973C86.7074 89.6028 88.2424 86.9978 89.4051 84.1604C90.4227 81.6771 91.1667 78.9842 91.8968 76.3415C91.999 75.9715 92.1009 75.6025 92.2033 75.2352C93.8886 69.1892 95.6961 63.6425 100.65 60.8895Z" stroke="white"/>
</g>
<ellipse rx="5.08922" ry="5.56963" transform="matrix(0.999829 -0.0184824 0.0376903 0.999289 108.353 78.8558)" fill="black"/>
<ellipse rx="5.08922" ry="5.56963" transform="matrix(0.999837 -0.0180475 0.0385975 0.999255 131.557 79.4464)" fill="black"/>
<path d="M114.398 89.0579L113.068 87.8943C112.806 87.6651 112.446 87.5836 112.111 87.6774C111.24 87.9213 111.083 89.0887 111.859 89.5541L113.652 90.6302C113.741 90.6832 113.833 90.729 113.929 90.7673L114.589 91.0314C116.643 91.8528 118.916 91.9426 121.028 91.2855L122.476 90.8352C122.742 90.7524 122.989 90.6175 123.202 90.4384L124.668 89.2072C125.159 88.7949 125.055 88.0123 124.474 87.7411C124.19 87.6086 123.857 87.6377 123.601 87.8174L121.722 89.1328C121.358 89.3872 120.961 89.5906 120.543 89.7371L119.811 89.9934C118.493 90.4545 117.051 90.4106 115.764 89.87L115.564 89.7858C115.139 89.6073 114.745 89.3615 114.398 89.0579Z" fill="black" stroke="black"/>
<g filter="url(#filter1_d)">
<path fill-rule="evenodd" clip-rule="evenodd" d="M116.693 80C115.715 85.6079 110.823 89.871 104.936 89.871C98.3437 89.871 93 84.5273 93 77.9355C93 71.3437 98.3437 66 104.936 66C111.212 66 116.358 70.8455 116.835 77L118.861 77L120.178 77C121.017 71.2286 125.985 66.7957 131.989 66.7957C138.581 66.7957 143.925 72.1394 143.925 78.7312C143.925 85.323 138.581 90.6667 131.989 90.6667C125.826 90.6667 120.754 85.9953 120.12 80L116.693 80ZM105 87C109.971 87 114 82.9706 114 78C114 73.0294 109.971 69 105 69C100.029 69 96 73.0294 96 78C96 82.9706 100.029 87 105 87ZM132.054 87.7957C137.024 87.7957 141.054 83.7662 141.054 78.7957C141.054 73.8251 137.024 69.7957 132.054 69.7957C127.083 69.7957 123.054 73.8251 123.054 78.7957C123.054 83.7662 127.083 87.7957 132.054 87.7957Z" fill="#7D8AFF"/>
</g>
<path d="M200.849 50.8008L196.497 57.0338C196.067 57.6492 195.269 57.8854 194.574 57.6028C193.572 57.1957 193.25 55.936 193.933 55.0979L200.412 47.1473C202.157 45.006 204.773 43.7634 207.535 43.7634H242.022C244.257 43.7634 246.336 44.9096 247.528 46.7996L252.563 54.7788C253.112 55.6494 252.486 56.7839 251.457 56.7839C250.949 56.7839 250.487 56.4896 250.272 56.0293L248.118 51.4129C246.59 48.1364 243.301 46.0419 239.686 46.0419H209.976C206.339 46.0419 202.931 47.8187 200.849 50.8008Z" fill="black"/>
<g filter="url(#filter2_d)">
<ellipse cx="254.75" cy="67.7902" rx="6.76345" ry="13.9248" transform="rotate(-14.137 254.75 67.7902)" fill="black"/>
</g>
<g filter="url(#filter3_d)">
<path fill-rule="evenodd" clip-rule="evenodd" d="M248.052 54.5346C235.868 45.3067 216.82 46.0426 203.023 52.6172C189.434 59.0922 187.622 77.9549 176.847 88.4646C166.572 98.4856 146.728 98.7741 141.856 112.274C137.022 125.669 160.959 135.456 164.71 149.194C168.243 162.136 159.097 183.205 169.086 192.161C179.202 201.232 193.792 180.973 207.28 182.613C218.237 183.945 224.387 203.699 233.936 209.269C248.052 220.807 272.015 216.637 283.031 204.7C294.556 192.212 274.469 171.851 276.643 154.998C278.265 142.423 296.497 134.116 293.732 121.742C290.964 109.356 271.235 109.375 264.101 98.8788C255.111 85.6525 260.8 64.1903 248.052 54.5346Z" fill="#00A9B4"/>
<path d="M234.188 208.837L234.222 208.857L234.252 208.882C241.178 214.543 250.551 216.372 259.587 215.291C268.625 214.21 277.252 210.225 282.664 204.361C285.434 201.359 286.312 197.888 286.09 194.064C285.866 190.218 284.529 186.038 282.876 181.663C282.37 180.325 281.834 178.967 281.294 177.598C280.078 174.517 278.838 171.377 277.867 168.267C276.461 163.766 275.59 159.253 276.147 154.934C276.567 151.679 278.058 148.726 279.975 145.952C281.529 143.704 283.385 141.545 285.203 139.429C285.622 138.941 286.04 138.455 286.451 137.971C290.892 132.745 294.565 127.762 293.244 121.851C291.92 115.93 286.544 112.925 280.344 110.056C279.694 109.755 279.035 109.455 278.372 109.154C275.913 108.037 273.404 106.896 271.102 105.571C268.174 103.885 265.531 101.872 263.687 99.1598C261.391 95.782 260.043 91.8942 259.106 87.8406C258.392 84.7531 257.912 81.5422 257.438 78.376C257.291 77.3932 257.144 76.4147 256.992 75.4455C255.694 67.2056 253.945 59.6259 247.75 54.9332C235.763 45.8546 216.929 46.5445 203.238 53.0686C196.609 56.2271 192.823 62.4176 189.325 69.2556C188.788 70.3061 188.257 71.3723 187.724 72.4441C184.81 78.2991 181.814 84.3185 177.196 88.8225C174.572 91.3812 171.352 93.3058 167.949 94.9635C165.726 96.0465 163.398 97.0272 161.101 97.9951C159.895 98.5035 158.697 99.0083 157.527 99.5225C150.669 102.536 144.683 105.913 142.326 112.444C141.178 115.625 141.726 118.599 143.3 121.525C144.885 124.47 147.494 127.334 150.417 130.252C151.256 131.089 152.121 131.931 152.993 132.78C155.139 134.869 157.325 136.996 159.252 139.182C161.966 142.261 164.225 145.518 165.192 149.062C166.097 152.376 166.184 156.183 165.979 160.134C165.857 162.473 165.63 164.901 165.403 167.318C165.249 168.964 165.095 170.605 164.976 172.21C164.678 176.204 164.586 180.03 165.177 183.403C165.767 186.769 167.031 189.648 169.42 191.789C171.809 193.931 174.447 194.349 177.327 193.775C180.241 193.195 183.371 191.603 186.673 189.738C187.417 189.318 188.171 188.883 188.931 188.445C191.514 186.956 194.174 185.422 196.841 184.232C200.297 182.69 203.837 181.691 207.34 182.117C210.226 182.468 212.759 184.028 215.067 186.192C217.373 188.356 219.492 191.16 221.544 194.063C222.129 194.89 222.707 195.724 223.284 196.555C224.742 198.657 226.186 200.738 227.676 202.632C229.755 205.274 231.883 207.493 234.188 208.837Z" stroke="white"/>
</g>
<ellipse rx="5.27062" ry="5.56993" transform="matrix(0.999848 -0.0174263 0.0399716 0.999201 216.352 70.9046)" fill="black"/>
<path d="M245.148 71.4101C245.261 74.2343 243.19 76.5136 240.581 76.5591C237.972 76.6046 235.722 74.4005 235.609 71.5764C235.496 68.7522 237.567 66.4728 240.176 66.4273C242.785 66.3819 245.035 68.5859 245.148 71.4101Z" fill="black" stroke="black"/>
<path d="M225.478 80.2979L224.498 79.3455C224.279 79.1326 223.961 79.0565 223.67 79.1472C223 79.3556 222.871 80.2475 223.455 80.6366L224.883 81.5887C224.961 81.6406 225.043 81.6858 225.128 81.7237L225.575 81.9224C227.134 82.6149 228.896 82.6902 230.508 82.1332L231.496 81.7914C231.734 81.7092 231.952 81.5779 232.136 81.4062L233.271 80.3472C233.627 80.0153 233.546 79.4315 233.115 79.2076C232.871 79.0811 232.575 79.1081 232.358 79.2768L230.969 80.3571C230.706 80.5624 230.413 80.7282 230.102 80.8494L229.579 81.0524C228.571 81.4448 227.445 81.4078 226.464 80.95L226.337 80.8904C226.019 80.7423 225.729 80.542 225.478 80.2979Z" fill="black" stroke="black"/>
<g filter="url(#filter4_d)">
<ellipse cx="190.276" cy="69.3816" rx="6.76345" ry="13.9248" transform="rotate(16.5434 190.276 69.3816)" fill="black"/>
</g>
<defs>
<filter id="filter0_d" x="41.0131" y="57.8005" width="159.58" height="143.499" filterUnits="userSpaceOnUse" color-interpolation-filters="sRGB">
<feFlood flood-opacity="0" result="BackgroundImageFix"/>
<feColorMatrix in="SourceAlpha" type="matrix" values="0 0 0 0 0 0 0 0 0 0 0 0 0 0 0 0 0 0 127 0"/>
<feOffset dy="4"/>
<feGaussianBlur stdDeviation="2"/>
<feColorMatrix type="matrix" values="0 0 0 0 0 0 0 0 0 0 0 0 0 0 0 0 0 0 0.25 0"/>
<feBlend mode="normal" in2="BackgroundImageFix" result="effect1_dropShadow"/>
<feBlend mode="normal" in="SourceGraphic" in2="effect1_dropShadow" result="shape"/>
</filter>
<filter id="filter1_d" x="89" y="66" width="58.9248" height="32.6667" filterUnits="userSpaceOnUse" color-interpolation-filters="sRGB">
<feFlood flood-opacity="0" result="BackgroundImageFix"/>
<feColorMatrix in="SourceAlpha" type="matrix" values="0 0 0 0 0 0 0 0 0 0 0 0 0 0 0 0 0 0 127 0"/>
<feOffset dy="4"/>
<feGaussianBlur stdDeviation="2"/>
<feColorMatrix type="matrix" values="0 0 0 0 0 0 0 0 0 0 0 0 0 0 0 0 0 0 0.25 0"/>
<feBlend mode="normal" in2="BackgroundImageFix" result="effect1_dropShadow"/>
<feBlend mode="normal" in="SourceGraphic" in2="effect1_dropShadow" result="shape"/>
</filter>
<filter id="filter2_d" x="243.36" y="54.1851" width="22.779" height="35.2102" filterUnits="userSpaceOnUse" color-interpolation-filters="sRGB">
<feFlood flood-opacity="0" result="BackgroundImageFix"/>
<feColorMatrix in="SourceAlpha" type="matrix" values="0 0 0 0 0 0 0 0 0 0 0 0 0 0 0 0 0 0 127 0"/>
<feOffset dy="4"/>
<feGaussianBlur stdDeviation="2"/>
<feColorMatrix type="matrix" values="0 0 0 0 0 0 0 0 0 0 0 0 0 0 0 0 0 0 0.25 0"/>
<feBlend mode="normal" in2="BackgroundImageFix" result="effect1_dropShadow"/>
<feBlend mode="normal" in="SourceGraphic" in2="effect1_dropShadow" result="shape"/>
</filter>
<filter id="filter3_d" x="137.214" y="47.6417" width="160.802" height="176.445" filterUnits="userSpaceOnUse" color-interpolation-filters="sRGB">
<feFlood flood-opacity="0" result="BackgroundImageFix"/>
<feColorMatrix in="SourceAlpha" type="matrix" values="0 0 0 0 0 0 0 0 0 0 0 0 0 0 0 0 0 0 127 0"/>
<feOffset dy="4"/>
<feGaussianBlur stdDeviation="2"/>
<feColorMatrix type="matrix" values="0 0 0 0 0 0 0 0 0 0 0 0 0 0 0 0 0 0 0.25 0"/>
<feBlend mode="normal" in2="BackgroundImageFix" result="effect1_dropShadow"/>
<feBlend mode="normal" in="SourceGraphic" in2="effect1_dropShadow" result="shape"/>
</filter>
<filter id="filter4_d" x="178.675" y="55.8933" width="23.2017" height="34.9766" filterUnits="userSpaceOnUse" color-interpolation-filters="sRGB">
<feFlood flood-opacity="0" result="BackgroundImageFix"/>
<feColorMatrix in="SourceAlpha" type="matrix" values="0 0 0 0 0 0 0 0 0 0 0 0 0 0 0 0 0 0 127 0"/>
<feOffset dy="4"/>
<feGaussianBlur stdDeviation="2"/>
<feColorMatrix type="matrix" values="0 0 0 0 0 0 0 0 0 0 0 0 0 0 0 0 0 0 0.25 0"/>
<feBlend mode="normal" in2="BackgroundImageFix" result="effect1_dropShadow"/>
<feBlend mode="normal" in="SourceGraphic" in2="effect1_dropShadow" result="shape"/>
</filter>
</defs>
</svg>
