<svg width="355" height="174" viewBox="0 0 355 174" fill="none" xmlns="http://www.w3.org/2000/svg">
<mask id="path-1-inside-1" fill="white">
<path fill-rule="evenodd" clip-rule="evenodd" d="M100 103.176V174H0V103.176V100.706H0.088516C1.64 79.115 23.393 62 50 62C76.607 62 98.36 79.115 99.9115 100.706H100V103.176Z"/>
</mask>
<path fill-rule="evenodd" clip-rule="evenodd" d="M100 103.176V174H0V103.176V100.706H0.088516C1.64 79.115 23.393 62 50 62C76.607 62 98.36 79.115 99.9115 100.706H100V103.176Z" fill="#9DA7FF"/>
<path d="M100 174V176H102V174H100ZM0 174H-2V176H0V174ZM0 100.706V98.7059H-2V100.706H0ZM0.088516 100.706V102.706H1.94996L2.08337 100.849L0.088516 100.706ZM99.9115 100.706L97.9166 100.849L98.05 102.706H99.9115V100.706ZM100 100.706H102V98.7059H100V100.706ZM98 103.176V174H102V103.176H98ZM100 172H0V176H100V172ZM2 174V103.176H-2V174H2ZM2 103.176V100.706H-2V103.176H2ZM0 102.706H0.088516V98.7059H0V102.706ZM2.08337 100.849C3.53787 80.6081 24.1075 64 50 64V60C22.6785 60 -0.25786 77.6219 -1.90634 100.563L2.08337 100.849ZM50 64C75.8925 64 96.4621 80.6081 97.9166 100.849L101.906 100.563C100.258 77.6219 77.3215 60 50 60V64ZM99.9115 102.706H100V98.7059H99.9115V102.706ZM98 100.706V103.176H102V100.706H98Z" fill="white" mask="url(#path-1-inside-1)"/>
<circle cx="83" cy="68" r="49" fill="#D2D7FF" stroke="white" stroke-width="2"/>
<ellipse rx="5.27062" ry="5.56993" transform="matrix(0.999848 -0.0174263 0.0399716 0.999201 88.4925 80.6573)" fill="black"/>
<path d="M115.762 81.5829C115.865 84.1575 113.982 86.1834 111.675 86.2236C109.368 86.2638 107.325 84.3063 107.222 81.7317C107.119 79.1571 109.003 77.1312 111.31 77.091C113.617 77.0508 115.659 79.0083 115.762 81.5829Z" fill="black" stroke="black" stroke-width="2"/>
<path d="M97.4779 92.7021L96.4982 93.6545C96.2792 93.8674 95.9613 93.9435 95.6696 93.8528C94.9999 93.6444 94.8713 92.7525 95.4549 92.3634L96.8831 91.4113C96.9609 91.3594 97.043 91.3142 97.1284 91.2763L97.5754 91.0776C99.1335 90.3851 100.896 90.3098 102.508 90.8668L103.496 91.2086C103.734 91.2908 103.952 91.4221 104.136 91.5938L105.271 92.6528C105.626 92.9847 105.546 93.5685 105.115 93.7924C104.871 93.9189 104.575 93.8919 104.358 93.7232L102.969 92.6429C102.705 92.4376 102.413 92.2718 102.102 92.1506L101.579 91.9476C100.571 91.5552 99.4452 91.5922 98.4643 92.05L98.3365 92.1096C98.0192 92.2577 97.7289 92.458 97.4779 92.7021Z" fill="black" stroke="black" stroke-width="2"/>
<mask id="path-7-inside-2" fill="white">
<path fill-rule="evenodd" clip-rule="evenodd" d="M355 103.176V174H255V103.176V100.706H255.089C256.64 79.115 278.393 62 305 62C331.607 62 353.36 79.115 354.911 100.706H355V103.176Z"/>
</mask>
<path fill-rule="evenodd" clip-rule="evenodd" d="M355 103.176V174H255V103.176V100.706H255.089C256.64 79.115 278.393 62 305 62C331.607 62 353.36 79.115 354.911 100.706H355V103.176Z" fill="#9DA7FF"/>
<path d="M355 174V176H357V174H355ZM255 174H253V176H255V174ZM255 100.706V98.7059H253V100.706H255ZM255.089 100.706V102.706H256.95L257.083 100.849L255.089 100.706ZM354.911 100.706L352.917 100.849L353.05 102.706H354.911V100.706ZM355 100.706H357V98.7059H355V100.706ZM353 103.176V174H357V103.176H353ZM355 172H255V176H355V172ZM257 174V103.176H253V174H257ZM257 103.176V100.706H253V103.176H257ZM255 102.706H255.089V98.7059H255V102.706ZM257.083 100.849C258.538 80.6081 279.108 64 305 64V60C277.678 60 254.742 77.6219 253.094 100.563L257.083 100.849ZM305 64C330.892 64 351.462 80.6081 352.917 100.849L356.906 100.563C355.258 77.6219 332.322 60 305 60V64ZM354.911 102.706H355V98.7059H354.911V102.706ZM353 100.706V103.176H357V100.706H353Z" fill="white" mask="url(#path-7-inside-2)"/>
<circle cx="305" cy="50" r="49" fill="#D2D7FF" stroke="white" stroke-width="2"/>
<ellipse rx="5.27062" ry="5.56993" transform="matrix(0.999848 -0.0174263 0.0399716 0.999201 293.492 55.6573)" fill="black"/>
<path d="M320.762 56.5829C320.865 59.1575 318.982 61.1834 316.675 61.2236C314.368 61.2638 312.325 59.3063 312.222 56.7317C312.119 54.1571 314.003 52.1312 316.31 52.091C318.617 52.0508 320.659 54.0083 320.762 56.5829Z" fill="black" stroke="black" stroke-width="2"/>
<path d="M302.478 69.2979L301.498 68.3455C301.279 68.1326 300.961 68.0565 300.67 68.1472C300 68.3556 299.871 69.2475 300.455 69.6366L301.883 70.5887C301.961 70.6406 302.043 70.6858 302.128 70.7237L302.575 70.9224C304.133 71.6149 305.896 71.6902 307.508 71.1332L308.496 70.7914C308.734 70.7092 308.952 70.5779 309.136 70.4062L310.271 69.3472C310.626 69.0153 310.546 68.4315 310.115 68.2076C309.871 68.0811 309.575 68.1081 309.358 68.2768L307.969 69.3571C307.705 69.5624 307.413 69.7282 307.102 69.8494L306.579 70.0524C305.571 70.4448 304.445 70.4078 303.464 69.95L303.336 69.8904C303.019 69.7423 302.729 69.542 302.478 69.2979Z" fill="black" stroke="black" stroke-width="2"/>
<path d="M267.894 4.55279L267 2.76393L266.106 4.55279L264.921 6.92131L262.553 8.10557L260.764 9L262.553 9.89443L264.921 11.0787L266.106 13.4472L267 15.2361L267.894 13.4472L269.079 11.0787L271.447 9.89443L273.236 9L271.447 8.10557L269.079 6.92131L267.894 4.55279Z" fill="#FFFCB8" stroke="#F2C94C" stroke-width="2"/>
<path d="M339.894 79.5528L339 77.7639L338.106 79.5528L336.921 81.9213L334.553 83.1056L332.764 84L334.553 84.8944L336.921 86.0787L338.106 88.4472L339 90.2361L339.894 88.4472L341.079 86.0787L343.447 84.8944L345.236 84L343.447 83.1056L341.079 81.9213L339.894 79.5528Z" fill="#FFFCB8" stroke="#F2C94C" stroke-width="2"/>
<path d="M343.894 91.5528L343 89.7639L342.106 91.5528L340.921 93.9213L338.553 95.1056L336.764 96L338.553 96.8944L340.921 98.0787L342.106 100.447L343 102.236L343.894 100.447L345.079 98.0787L347.447 96.8944L349.236 96L347.447 95.1056L345.079 93.9213L343.894 91.5528Z" fill="#FFFCB8" stroke="#F2C94C" stroke-width="2"/>
<path d="M331.894 87.5528L331 85.7639L330.106 87.5528L328.921 89.9213L326.553 91.1056L324.764 92L326.553 92.8944L328.921 94.0787L330.106 96.4472L331 98.2361L331.894 96.4472L333.079 94.0787L335.447 92.8944L337.236 92L335.447 91.1056L333.079 89.9213L331.894 87.5528Z" fill="#FFFCB8" stroke="#F2C94C" stroke-width="2"/>
<path d="M271.894 15.5528L271 13.7639L270.106 15.5528L268.921 17.9213L266.553 19.1056L264.764 20L266.553 20.8944L268.921 22.0787L270.106 24.4472L271 26.2361L271.894 24.4472L273.079 22.0787L275.447 20.8944L277.236 20L275.447 19.1056L273.079 17.9213L271.894 15.5528Z" fill="#FFFCB8" stroke="#F2C94C" stroke-width="2"/>
<path d="M259.894 12.5528L259 10.7639L258.106 12.5528L256.921 14.9213L254.553 16.1056L252.764 17L254.553 17.8944L256.921 19.0787L258.106 21.4472L259 23.2361L259.894 21.4472L261.079 19.0787L263.447 17.8944L265.236 17L263.447 16.1056L261.079 14.9213L259.894 12.5528Z" fill="#FFFCB8" stroke="#F2C94C" stroke-width="2"/>
</svg>
