<svg width="849" height="213" viewBox="0 0 849 213" fill="none" xmlns="http://www.w3.org/2000/svg">
<g filter="url(#filter0_d)">
<path d="M32.976 160.44C28.368 160.44 23.568 159.864 18.576 158.712C13.68 157.464 10.176 156.024 8.064 154.392L13.248 142.152C19.008 146.184 25.584 148.2 32.976 148.2C40.368 148.2 44.064 146.04 44.064 141.72C44.064 139.8 43.296 138.312 41.76 137.256C40.224 136.2 37.488 134.952 33.552 133.512L28.08 131.496C22.32 129.192 17.76 126.456 14.4 123.288C11.04 120.024 9.36 115.752 9.36 110.472C9.36 104.424 11.712 99.72 16.416 96.36C21.216 92.904 27.6 91.176 35.568 91.176C39.504 91.176 43.344 91.608 47.088 92.472C50.928 93.336 53.856 94.44 55.872 95.784L50.256 108.168C49.008 106.92 46.992 105.864 44.208 105C41.52 104.04 38.496 103.56 35.136 103.56C28.32 103.56 24.912 105.624 24.912 109.752C24.912 112.056 25.824 113.832 27.648 115.08C29.472 116.232 32.448 117.528 36.576 118.968C36.96 119.064 38.448 119.592 41.04 120.552C47.184 122.952 51.744 125.688 54.72 128.76C57.696 131.832 59.184 135.768 59.184 140.568C59.184 147.096 56.688 152.04 51.696 155.4C46.8 158.76 40.56 160.44 32.976 160.44ZM81.0934 105.576H69.4294V92.904H81.0934V65.976L96.7894 62.52V92.904H112.053V105.576H96.7894V159H81.0934V105.576ZM147.589 160.44C138.469 160.44 132.181 157.752 128.725 152.376C125.365 147 123.685 139.512 123.685 129.912V92.904H139.237V126.024C139.237 131.496 139.525 135.768 140.101 138.84C140.773 141.816 142.021 144.024 143.845 145.464C145.765 146.904 148.597 147.624 152.341 147.624C155.029 147.624 157.621 146.856 160.117 145.32C162.613 143.784 164.629 141.72 166.165 139.128C167.797 136.44 168.613 133.512 168.613 130.344V92.904H184.021V159H171.349L169.621 149.352C167.221 153.096 164.197 155.88 160.549 157.704C156.997 159.528 152.677 160.44 147.589 160.44ZM233.94 160.44C227.988 160.44 222.468 159.048 217.38 156.264C212.388 153.384 208.356 149.352 205.284 144.168C202.308 138.888 200.82 132.744 200.82 125.736C200.82 115.272 203.748 106.92 209.604 100.68C215.46 94.344 223.38 91.176 233.364 91.176C238.932 91.176 244.02 92.568 248.628 95.352C253.236 98.04 256.356 101.304 257.988 105.144L257.268 93.912V53.16H272.532V159H257.7L257.412 147.336C255.78 150.792 252.804 153.864 248.484 156.552C244.164 159.144 239.316 160.44 233.94 160.44ZM236.532 147.336C242.004 147.336 246.612 145.464 250.356 141.72C254.1 137.88 255.972 132.888 255.972 126.744V125.736C255.972 121.608 255.108 117.912 253.38 114.648C251.652 111.384 249.3 108.84 246.324 107.016C243.348 105.192 240.084 104.28 236.532 104.28C230.388 104.28 225.636 106.296 222.276 110.328C218.916 114.264 217.236 119.4 217.236 125.736C217.236 132.168 218.868 137.4 222.132 141.432C225.492 145.368 230.292 147.336 236.532 147.336ZM312.17 161.016L284.81 92.904H302.378L316.49 134.952L319.658 145.176L322.826 134.952L337.658 92.904H354.65L314.042 195.288H297.914L312.17 161.016ZM403.908 160.44C398.532 160.44 393.684 159.144 389.364 156.552C385.14 153.864 382.212 150.792 380.58 147.336L380.292 159H365.316V53.16H380.58V93.912L379.86 105.144C381.492 101.304 384.66 98.04 389.364 95.352C394.164 92.568 399.348 91.176 404.916 91.176C411.444 91.176 417.108 92.664 421.908 95.64C426.804 98.52 430.548 102.6 433.14 107.88C435.732 113.064 437.028 119.112 437.028 126.024C437.028 133.032 435.492 139.128 432.42 144.312C429.444 149.496 425.412 153.48 420.324 156.264C415.332 159.048 409.86 160.44 403.908 160.44ZM401.316 147.48C407.556 147.48 412.356 145.512 415.716 141.576C419.076 137.544 420.756 132.36 420.756 126.024C420.756 119.592 419.076 114.408 415.716 110.472C412.452 106.44 407.652 104.424 401.316 104.424C395.844 104.424 391.236 106.344 387.492 110.184C383.748 113.928 381.876 118.872 381.876 125.016V126.024C381.876 130.152 382.74 133.848 384.468 137.112C386.292 140.376 388.644 142.92 391.524 144.744C394.5 146.568 397.764 147.48 401.316 147.48ZM476.511 160.44C467.391 160.44 461.103 157.752 457.647 152.376C454.287 147 452.607 139.512 452.607 129.912V92.904H468.159V126.024C468.159 131.496 468.447 135.768 469.023 138.84C469.695 141.816 470.943 144.024 472.767 145.464C474.687 146.904 477.519 147.624 481.263 147.624C483.951 147.624 486.543 146.856 489.039 145.32C491.535 143.784 493.551 141.72 495.087 139.128C496.719 136.44 497.535 133.512 497.535 130.344V92.904H512.943V159H500.271L498.543 149.352C496.143 153.096 493.119 155.88 489.471 157.704C485.919 159.528 481.599 160.44 476.511 160.44ZM562.862 160.44C556.91 160.44 551.39 159.048 546.302 156.264C541.31 153.384 537.278 149.352 534.206 144.168C531.23 138.888 529.742 132.744 529.742 125.736C529.742 115.272 532.67 106.92 538.526 100.68C544.382 94.344 552.302 91.176 562.286 91.176C567.854 91.176 572.942 92.568 577.55 95.352C582.158 98.04 585.278 101.304 586.91 105.144L586.19 93.912V53.16H601.454V159H586.622L586.334 147.336C584.702 150.792 581.726 153.864 577.406 156.552C573.086 159.144 568.238 160.44 562.862 160.44ZM565.454 147.336C570.926 147.336 575.534 145.464 579.278 141.72C583.022 137.88 584.894 132.888 584.894 126.744V125.736C584.894 121.608 584.03 117.912 582.302 114.648C580.574 111.384 578.222 108.84 575.246 107.016C572.27 105.192 569.006 104.28 565.454 104.28C559.31 104.28 554.558 106.296 551.198 110.328C547.838 114.264 546.158 119.4 546.158 125.736C546.158 132.168 547.79 137.4 551.054 141.432C554.414 145.368 559.214 147.336 565.454 147.336ZM651.315 160.44C645.363 160.44 639.843 159.048 634.755 156.264C629.763 153.384 625.731 149.352 622.659 144.168C619.683 138.888 618.195 132.744 618.195 125.736C618.195 115.272 621.123 106.92 626.979 100.68C632.835 94.344 640.755 91.176 650.739 91.176C656.307 91.176 661.395 92.568 666.003 95.352C670.611 98.04 673.731 101.304 675.363 105.144L674.643 93.912V53.16H689.907V159H675.075L674.787 147.336C673.155 150.792 670.179 153.864 665.859 156.552C661.539 159.144 656.691 160.44 651.315 160.44ZM653.907 147.336C659.379 147.336 663.987 145.464 667.731 141.72C671.475 137.88 673.347 132.888 673.347 126.744V125.736C673.347 121.608 672.483 117.912 670.755 114.648C669.027 111.384 666.675 108.84 663.699 107.016C660.723 105.192 657.459 104.28 653.907 104.28C647.763 104.28 643.011 106.296 639.651 110.328C636.291 114.264 634.611 119.4 634.611 125.736C634.611 132.168 636.243 137.4 639.507 141.432C642.867 145.368 647.667 147.336 653.907 147.336ZM729.545 161.016L702.185 92.904H719.753L733.865 134.952L737.033 145.176L740.201 134.952L755.033 92.904H772.025L731.417 195.288H715.289L729.545 161.016ZM784.193 160.44C781.313 160.44 778.865 159.48 776.849 157.56C774.833 155.544 773.825 153.096 773.825 150.216C773.825 147.24 774.785 144.792 776.705 142.872C778.721 140.856 781.217 139.848 784.193 139.848C787.169 139.848 789.617 140.856 791.537 142.872C793.553 144.792 794.561 147.24 794.561 150.216C794.561 153.096 793.553 155.544 791.537 157.56C789.617 159.48 787.169 160.44 784.193 160.44ZM826.099 160.44C823.219 160.44 820.771 159.48 818.755 157.56C816.739 155.544 815.731 153.096 815.731 150.216C815.731 147.24 816.691 144.792 818.611 142.872C820.627 140.856 823.123 139.848 826.099 139.848C829.075 139.848 831.523 140.856 833.443 142.872C835.459 144.792 836.467 147.24 836.467 150.216C836.467 153.096 835.459 155.544 833.443 157.56C831.523 159.48 829.075 160.44 826.099 160.44Z" fill="#9DA7FF"/>
</g>
<g filter="url(#filter1_d)">
<path fill-rule="evenodd" clip-rule="evenodd" d="M845 165C845 187.091 827.091 205 805 205C782.909 205 765 187.091 765 165H777C777 180.464 789.536 193 805 193C820.464 193 833 180.464 833 165H845Z" fill="#9DA7FF"/>
</g>
<defs>
<filter id="filter0_d" x="4.06396" y="53.16" width="836.403" height="150.128" filterUnits="userSpaceOnUse" color-interpolation-filters="sRGB">
<feFlood flood-opacity="0" result="BackgroundImageFix"/>
<feColorMatrix in="SourceAlpha" type="matrix" values="0 0 0 0 0 0 0 0 0 0 0 0 0 0 0 0 0 0 127 0"/>
<feOffset dy="4"/>
<feGaussianBlur stdDeviation="2"/>
<feColorMatrix type="matrix" values="0 0 0 0 0 0 0 0 0 0 0 0 0 0 0 0 0 0 0.25 0"/>
<feBlend mode="normal" in2="BackgroundImageFix" result="effect1_dropShadow"/>
<feBlend mode="normal" in="SourceGraphic" in2="effect1_dropShadow" result="shape"/>
</filter>
<filter id="filter1_d" x="761" y="165" width="88" height="48" filterUnits="userSpaceOnUse" color-interpolation-filters="sRGB">
<feFlood flood-opacity="0" result="BackgroundImageFix"/>
<feColorMatrix in="SourceAlpha" type="matrix" values="0 0 0 0 0 0 0 0 0 0 0 0 0 0 0 0 0 0 127 0"/>
<feOffset dy="4"/>
<feGaussianBlur stdDeviation="2"/>
<feColorMatrix type="matrix" values="0 0 0 0 0 0 0 0 0 0 0 0 0 0 0 0 0 0 0.25 0"/>
<feBlend mode="normal" in2="BackgroundImageFix" result="effect1_dropShadow"/>
<feBlend mode="normal" in="SourceGraphic" in2="effect1_dropShadow" result="shape"/>
</filter>
</defs>
</svg>
