<svg width="326" height="100" viewBox="0 0 326 100" fill="none" xmlns="http://www.w3.org/2000/svg">
<g filter="url(#filter0_d)">
<path fill-rule="evenodd" clip-rule="evenodd" d="M40.1629 24.181C44.1947 21.9405 49.3987 23.6998 53.7167 25.3214C57.7404 26.8325 60.1039 30.7953 63.7661 33.0451C68.5502 35.9842 77.2935 35.08 78.5202 40.5591C79.7954 46.2546 70.2807 49.0332 68.5969 54.6216C67.0915 59.6178 72.1397 65.3824 69.6579 69.9726C67.2363 74.4515 61.3666 75.803 56.4431 77.1009C51.6438 78.3661 46.7734 73.7661 41.8538 73.1095C36.5292 72.3989 29.465 77.6125 26.5358 73.1095C23.3785 68.2559 29.5623 61.6762 28.0079 56.0986C26.5215 50.7647 16.6402 48.3941 18.1645 43.0709C19.733 37.5931 29.3007 40.1992 33.6235 36.4872C37.2089 33.4085 36.0321 26.4765 40.1629 24.181Z" fill="#D2D7FF"/>
<path d="M40.4058 24.618C42.2878 23.5722 44.4707 23.4437 46.7561 23.797C49.0442 24.1508 51.3811 24.9784 53.5409 25.7895C55.4519 26.5072 56.9866 27.8132 58.5342 29.2703C58.7694 29.4917 59.0053 29.7171 59.243 29.9442C60.5485 31.1915 61.9079 32.4904 63.5044 33.4712C64.7621 34.2438 66.2609 34.7532 67.7851 35.1708C68.5129 35.3702 69.2555 35.551 69.986 35.7287L70.0951 35.7553C70.8634 35.9424 71.6173 36.1271 72.3418 36.3309C75.2866 37.1593 77.4884 38.2389 78.0323 40.6684C78.3152 41.9321 78.0089 43.0381 77.324 44.1028C76.6275 45.1854 75.5549 46.2007 74.3408 47.2526C74.0534 47.5016 73.7577 47.753 73.4586 48.0071C72.5143 48.8097 71.5362 49.641 70.6794 50.5183C69.5462 51.6785 68.5727 52.9688 68.1182 54.4773C67.7115 55.8271 67.7537 57.2089 67.9836 58.566C68.1834 59.7448 68.5314 60.9367 68.8677 62.0885C68.9166 62.256 68.9653 62.4227 69.0132 62.5883C69.786 65.2594 70.3475 67.6458 69.2181 69.7348C68.0809 71.838 66.1201 73.2355 63.7857 74.2727C61.6588 75.2177 59.2745 75.8422 56.997 76.4386C56.7687 76.4984 56.5414 76.5579 56.3156 76.6175C54.1001 77.2015 51.8288 76.4428 49.3955 75.3685C48.95 75.1718 48.4983 74.9639 48.0416 74.7537C46.0643 73.8437 43.9935 72.8907 41.92 72.6139C40.5018 72.4246 38.9939 72.6321 37.5192 72.9545C36.7791 73.1163 36.0371 73.3095 35.3118 73.5011C35.237 73.5209 35.1624 73.5406 35.088 73.5603C34.4377 73.7324 33.8027 73.9004 33.1831 74.0447C31.7933 74.3684 30.5446 74.5564 29.4828 74.4137C28.4517 74.2752 27.5983 73.826 26.9549 72.8369C25.5244 70.6377 26.1774 68.0156 27.1464 65.0299C27.2255 64.786 27.3066 64.54 27.3882 64.2922C27.7939 63.0611 28.2134 61.7879 28.4789 60.5303C28.7992 59.0128 28.9082 57.4666 28.4896 55.9644C28.0825 54.5037 27.1113 53.2799 25.9727 52.1988C25.0824 51.3534 24.0533 50.5631 23.0655 49.8047C22.7943 49.5965 22.5262 49.3906 22.2649 49.1866C21.0301 48.2227 19.9478 47.3014 19.2606 46.3161C18.5896 45.354 18.315 44.3616 18.6452 43.2085C18.9901 42.004 19.7661 41.2383 20.8548 40.7017C21.9657 40.1543 23.3767 39.8591 24.9396 39.6107C25.3426 39.5466 25.7562 39.4857 26.1753 39.4239C27.3534 39.2503 28.5743 39.0703 29.7205 38.7981C31.2812 38.4273 32.7801 37.8705 33.9493 36.8665C34.9276 36.0265 35.5646 34.9373 36.0397 33.7779C36.454 32.7667 36.7567 31.6708 37.0482 30.6156C37.089 30.4677 37.1296 30.3206 37.1703 30.1746C37.8501 27.7358 38.5498 25.6494 40.4058 24.618Z" stroke="white"/>
</g>
<ellipse rx="2.03569" ry="2.22785" transform="matrix(0.999829 -0.0184824 0.0376904 0.999289 43.3413 31.5423)" fill="black"/>
<ellipse rx="2.03569" ry="2.22785" transform="matrix(0.999837 -0.0180475 0.0385975 0.999255 52.6228 31.7785)" fill="black"/>
<path d="M45.7592 35.6231L45.2273 35.1577C45.1225 35.066 44.9786 35.0334 44.8445 35.071C44.4961 35.1685 44.4333 35.6355 44.7436 35.8216L45.461 36.2521C45.4963 36.2733 45.5333 36.2916 45.5715 36.3069L45.8356 36.4125C46.6571 36.7411 47.5666 36.777 48.4114 36.5142L48.9904 36.3341C49.0968 36.301 49.1955 36.247 49.2808 36.1754L49.867 35.6829C50.0634 35.5179 50.0222 35.2049 49.7898 35.0965C49.6762 35.0435 49.543 35.0551 49.4403 35.127L48.6886 35.6531C48.5432 35.7549 48.3846 35.8362 48.2171 35.8949L47.9242 35.9973C47.3972 36.1818 46.8205 36.1642 46.3056 35.948L46.2255 35.9143C46.0554 35.8429 45.898 35.7446 45.7592 35.6231Z" fill="black" stroke="black"/>
<g filter="url(#filter1_d)">
<path fill-rule="evenodd" clip-rule="evenodd" d="M46.6773 32C46.2861 34.2431 44.3293 35.9484 41.9742 35.9484C39.3375 35.9484 37.2 33.8109 37.2 31.1742C37.2 28.5375 39.3375 26.4 41.9742 26.4C44.485 26.4 46.5431 28.3382 46.734 30.8L47.5445 30.8L48.0714 30.8C48.4068 28.4915 50.3942 26.7183 52.7957 26.7183C55.4325 26.7183 57.5699 28.8558 57.5699 31.4925C57.5699 34.1292 55.4325 36.2667 52.7957 36.2667C50.3305 36.2667 48.3016 34.3981 48.0482 32L46.6773 32ZM42 34.8C43.9882 34.8 45.6 33.1882 45.6 31.2C45.6 29.2118 43.9882 27.6 42 27.6C40.0118 27.6 38.4 29.2118 38.4 31.2C38.4 33.1882 40.0118 34.8 42 34.8ZM52.8215 35.1183C54.8098 35.1183 56.4215 33.5065 56.4215 31.5183C56.4215 29.53 54.8098 27.9183 52.8215 27.9183C50.8333 27.9183 49.2215 29.53 49.2215 31.5183C49.2215 33.5065 50.8333 35.1183 52.8215 35.1183Z" fill="#7D8AFF"/>
</g>
<path d="M80.3397 20.3203L78.5989 22.8135C78.427 23.0597 78.1077 23.1542 77.8295 23.0411C77.4289 22.8783 77.3 22.3744 77.5732 22.0392L80.1648 18.8589C80.8628 18.0024 81.9091 17.5053 83.014 17.5053H96.8089C97.7028 17.5053 98.5343 17.9638 99.0113 18.7198L101.025 21.9115C101.245 22.2598 100.995 22.7136 100.583 22.7136C100.38 22.7136 100.195 22.5959 100.109 22.4117L99.2474 20.5652C98.6359 19.2545 97.3205 18.4168 95.8743 18.4168H83.9904C82.5356 18.4168 81.1726 19.1275 80.3397 20.3203Z" fill="black"/>
<g filter="url(#filter2_d)">
<ellipse cx="101.9" cy="27.1161" rx="2.70538" ry="5.5699" transform="rotate(-14.137 101.9 27.1161)" fill="black"/>
</g>
<g filter="url(#filter3_d)">
<path fill-rule="evenodd" clip-rule="evenodd" d="M99.2206 21.8138C94.3473 18.1227 86.728 18.417 81.209 21.0469C75.7737 23.6369 75.049 31.182 70.7387 35.3858C66.6289 39.3942 58.6912 39.5097 56.7424 44.9097C54.8088 50.2677 64.3837 54.1823 65.884 59.6775C67.2974 64.8543 63.6389 73.2822 67.6343 76.8646C71.681 80.4928 77.5166 72.3893 82.912 73.0453C87.2949 73.5782 89.755 81.4797 93.5743 83.7077C99.2206 88.3227 108.806 86.6547 113.213 81.8799C117.822 76.8846 109.788 68.7406 110.657 61.9992C111.306 56.9692 118.599 53.6465 117.493 48.6968C116.385 43.7424 108.494 43.7501 105.64 39.5515C102.044 34.261 104.32 25.6761 99.2206 21.8138Z" fill="#00A9B4"/>
<path d="M93.8263 83.2758L93.8603 83.2956L93.8908 83.3205C96.5823 85.5204 100.243 86.2439 103.799 85.8185C107.358 85.3928 110.738 83.8245 112.845 81.5408C113.886 80.4123 114.222 79.1098 114.137 77.6432C114.05 76.1541 113.53 74.5189 112.87 72.7711C112.671 72.2448 112.458 71.7068 112.243 71.1618C111.755 69.9244 111.252 68.6508 110.861 67.3962C110.293 65.5798 109.93 63.7257 110.161 61.9353C110.338 60.5666 110.963 59.3393 111.743 58.2104C112.375 57.2968 113.13 56.4179 113.858 55.5712C114.025 55.3771 114.19 55.1848 114.352 54.9941C116.144 52.8859 117.496 51.005 117.005 48.8059C116.512 46.6001 114.51 45.4509 112.011 44.2945C111.756 44.1762 111.495 44.0578 111.232 43.9383C110.247 43.4905 109.226 43.0265 108.291 42.4883C107.101 41.8028 106 40.9703 105.227 39.8326C104.279 38.4387 103.729 36.8437 103.35 35.2038C103.062 33.9561 102.867 32.6554 102.677 31.3865C102.619 30.9955 102.561 30.6074 102.5 30.2248C101.98 26.9204 101.29 24.0085 98.9188 22.2124C94.2425 18.6706 86.837 18.9189 81.4241 21.4983C78.8723 22.7142 77.3961 25.1041 75.9971 27.8389C75.7855 28.2526 75.5755 28.6747 75.3635 29.1009C74.1993 31.4417 72.9749 33.9033 71.0878 35.7438C70.0056 36.7993 68.6851 37.5857 67.311 38.2551C66.415 38.6916 65.4696 39.09 64.5457 39.4793C64.0651 39.6819 63.5904 39.8819 63.1314 40.0836C60.3863 41.29 58.1082 42.598 57.2128 45.0794C56.7897 46.2516 56.9835 47.3513 57.5844 48.4679C58.1955 49.6035 59.2104 50.7221 60.3787 51.8883C60.7084 52.2174 61.051 52.5509 61.3978 52.8885C62.2595 53.7272 63.1471 54.5911 63.9258 55.4746C65.0221 56.7183 65.9613 58.0622 66.3663 59.5458C66.741 60.9182 66.7738 62.4797 66.6912 64.0691C66.6425 65.0075 66.5502 65.9937 66.4589 66.968C66.3974 67.6255 66.3363 68.2777 66.2895 68.9061C66.1709 70.4989 66.1368 71.9986 66.3665 73.3095C66.5949 74.6127 67.078 75.6942 67.9681 76.4923C68.8396 77.2737 69.7932 77.4309 70.8722 77.2159C71.9851 76.9941 73.1994 76.3808 74.5215 75.6341C74.8141 75.4689 75.1119 75.2972 75.4137 75.1232C76.449 74.5261 77.5318 73.9017 78.614 73.4189C80.0169 72.793 81.492 72.3689 82.9723 72.5489C84.2143 72.6999 85.2843 73.3691 86.232 74.2581C87.1784 75.146 88.0409 76.2894 88.8628 77.4522C89.1002 77.7881 89.3337 78.1248 89.5654 78.4588C90.1465 79.2965 90.716 80.1174 91.3063 80.8674C92.131 81.9152 92.954 82.7669 93.8263 83.2758Z" stroke="white"/>
</g>
<ellipse rx="2.10825" ry="2.22797" transform="matrix(0.999848 -0.0174263 0.0399716 0.999201 86.541 28.3618)" fill="black"/>
<path d="M97.7594 28.5693C97.7986 29.5492 97.0829 30.3089 96.2205 30.3239C95.3581 30.3389 94.5826 29.6052 94.5434 28.6253C94.5042 27.6454 95.2199 26.8857 96.0824 26.8707C96.9448 26.8557 97.7202 27.5893 97.7594 28.5693Z" fill="black" stroke="black"/>
<path d="M90.1912 32.1192L89.7993 31.7382C89.7117 31.653 89.5845 31.6226 89.4679 31.6589C89.2 31.7422 89.1485 32.099 89.382 32.2546L89.9532 32.6355C89.9844 32.6562 90.0172 32.6743 90.0514 32.6895L90.2302 32.769C90.8534 33.046 91.5585 33.0761 92.2031 32.8533L92.5985 32.7166C92.6937 32.6837 92.7809 32.6312 92.8545 32.5625L93.3084 32.1389C93.4506 32.0061 93.4186 31.7726 93.2459 31.683C93.1483 31.6324 93.0301 31.6432 92.9434 31.7107L92.3878 32.1429C92.2822 32.225 92.1653 32.2913 92.0406 32.3398L91.8318 32.421C91.4283 32.5779 90.9781 32.5631 90.5858 32.38L90.5346 32.3561C90.4077 32.2969 90.2916 32.2168 90.1912 32.1192Z" fill="black" stroke="black"/>
<g filter="url(#filter4_d)">
<ellipse cx="76.1105" cy="27.7527" rx="2.70538" ry="5.5699" transform="rotate(16.5434 76.1105 27.7527)" fill="black"/>
</g>
<g filter="url(#filter5_d)">
<path d="M54.2034 72.3267C52.686 72.3267 51.1054 72.137 49.4615 71.7576C47.8493 71.3467 46.6955 70.8725 46 70.3351L47.7071 66.3045C49.6038 67.6322 51.7692 68.2961 54.2034 68.2961C56.6375 68.2961 57.8546 67.5848 57.8546 66.1623C57.8546 65.53 57.6017 65.04 57.0959 64.6923C56.5901 64.3446 55.6891 63.9336 54.393 63.4594L52.5911 62.7956C50.6944 62.0369 49.1928 61.1359 48.0864 60.0927C46.98 59.0179 46.4268 57.6112 46.4268 55.8725C46.4268 53.8809 47.2013 52.3319 48.7503 51.2255C50.3309 50.0875 52.4331 49.5184 55.0569 49.5184C56.353 49.5184 57.6175 49.6607 58.8504 49.9452C60.1149 50.2297 61.079 50.5933 61.7429 51.0358L59.8936 55.1138C59.4826 54.7028 58.8188 54.3551 57.902 54.0706C57.0169 53.7545 56.0211 53.5964 54.9146 53.5964C52.6702 53.5964 51.5479 54.2761 51.5479 55.6354C51.5479 56.3941 51.8483 56.9789 52.4489 57.3899C53.0495 57.7692 54.0295 58.196 55.3888 58.6702C55.5153 58.7018 56.0053 58.8757 56.8588 59.1918C58.882 59.9821 60.3836 60.883 61.3635 61.8946C62.3435 62.9062 62.8335 64.2023 62.8335 65.7829C62.8335 67.9326 62.0116 69.5606 60.3678 70.667C58.7555 71.7734 56.7007 72.3267 54.2034 72.3267Z" fill="white"/>
<path d="M70.0481 54.2603H66.2073V50.0875H70.0481V41.2202L75.2167 40.0822V50.0875H80.2431V54.2603H75.2167V71.8525H70.0481V54.2603Z" fill="white"/>
<path d="M91.9447 72.3267C88.9415 72.3267 86.8709 71.4415 85.7329 69.6712C84.6264 67.9009 84.0732 65.4352 84.0732 62.274V50.0875H89.1944V60.9937C89.1944 62.7956 89.2892 64.2023 89.4789 65.2139C89.7002 66.1939 90.1112 66.921 90.7118 67.3952C91.344 67.8693 92.2766 68.1064 93.5095 68.1064C94.3946 68.1064 95.2481 67.8535 96.0701 67.3477C96.892 66.8419 97.5558 66.1623 98.0616 65.3087C98.599 64.4236 98.8677 63.4594 98.8677 62.4162V50.0875H103.942V71.8525H99.7687L99.1997 68.6754C98.4094 69.9083 97.4136 70.8251 96.2123 71.4257C95.0427 72.0263 93.6201 72.3267 91.9447 72.3267Z" fill="white"/>
<path d="M120.38 72.3267C118.42 72.3267 116.602 71.8683 114.927 70.9515C113.283 70.0032 111.955 68.6754 110.943 66.9684C109.964 65.2297 109.474 63.2065 109.474 60.8988C109.474 57.4531 110.438 54.7028 112.366 52.648C114.294 50.5616 116.902 49.5184 120.19 49.5184C122.024 49.5184 123.699 49.9768 125.216 50.8936C126.734 51.7787 127.761 52.8535 128.299 54.118L128.062 50.4194V37H133.088V71.8525H128.204L128.109 68.0116C127.572 69.1496 126.592 70.1612 125.169 71.0464C123.746 71.8999 122.15 72.3267 120.38 72.3267ZM121.233 68.0116C123.035 68.0116 124.553 67.3952 125.785 66.1623C127.018 64.8978 127.635 63.254 127.635 61.2308V60.8988C127.635 59.5395 127.35 58.3224 126.781 57.2476C126.212 56.1728 125.438 55.3351 124.458 54.7345C123.478 54.1338 122.403 53.8335 121.233 53.8335C119.21 53.8335 117.645 54.4974 116.539 55.8251C115.432 57.1212 114.879 58.8124 114.879 60.8988C114.879 63.0169 115.417 64.7397 116.491 66.0674C117.598 67.3635 119.178 68.0116 121.233 68.0116Z" fill="white"/>
<path d="M146.14 72.5163L137.131 50.0875H142.916L147.563 63.9336L148.606 67.3003L149.649 63.9336L154.533 50.0875H160.129L146.757 83.8019H141.446L146.14 72.5163Z" fill="white"/>
<path d="M176.349 72.3267C174.579 72.3267 172.982 71.8999 171.56 71.0464C170.169 70.1612 169.205 69.1496 168.667 68.0116L168.572 71.8525H163.641V37H168.667V50.4194L168.43 54.118C168.967 52.8535 170.011 51.7787 171.56 50.8936C173.14 49.9768 174.847 49.5184 176.681 49.5184C178.83 49.5184 180.696 50.0084 182.276 50.9884C183.888 51.9368 185.121 53.2803 185.975 55.019C186.828 56.726 187.255 58.7176 187.255 60.9937C187.255 63.3014 186.749 65.3087 185.738 67.0158C184.758 68.7229 183.43 70.0348 181.755 70.9515C180.111 71.8683 178.309 72.3267 176.349 72.3267ZM175.495 68.059C177.55 68.059 179.131 67.411 180.237 66.1149C181.344 64.7871 181.897 63.0801 181.897 60.9937C181.897 58.8757 181.344 57.1686 180.237 55.8725C179.162 54.5448 177.582 53.8809 175.495 53.8809C173.693 53.8809 172.176 54.5132 170.943 55.7777C169.71 57.0105 169.094 58.6386 169.094 60.6618V60.9937C169.094 62.353 169.378 63.5701 169.947 64.6449C170.548 65.7197 171.323 66.5574 172.271 67.1581C173.251 67.7587 174.326 68.059 175.495 68.059Z" fill="white"/>
<path d="M200.257 72.3267C197.253 72.3267 195.183 71.4415 194.045 69.6712C192.938 67.9009 192.385 65.4352 192.385 62.274V50.0875H197.506V60.9937C197.506 62.7956 197.601 64.2023 197.791 65.2139C198.012 66.1939 198.423 66.921 199.024 67.3952C199.656 67.8693 200.589 68.1064 201.821 68.1064C202.707 68.1064 203.56 67.8535 204.382 67.3477C205.204 66.8419 205.868 66.1623 206.374 65.3087C206.911 64.4236 207.18 63.4594 207.18 62.4162V50.0875H212.254V71.8525H208.081L207.512 68.6754C206.721 69.9083 205.726 70.8251 204.524 71.4257C203.355 72.0263 201.932 72.3267 200.257 72.3267Z" fill="white"/>
<path d="M228.692 72.3267C226.732 72.3267 224.914 71.8683 223.239 70.9515C221.595 70.0032 220.267 68.6754 219.255 66.9684C218.276 65.2297 217.786 63.2065 217.786 60.8988C217.786 57.4531 218.75 54.7028 220.678 52.648C222.606 50.5616 225.214 49.5184 228.502 49.5184C230.336 49.5184 232.011 49.9768 233.528 50.8936C235.046 51.7787 236.073 52.8535 236.611 54.118L236.374 50.4194V37H241.4V71.8525H236.516L236.421 68.0116C235.884 69.1496 234.904 70.1612 233.481 71.0464C232.058 71.8999 230.462 72.3267 228.692 72.3267ZM229.545 68.0116C231.347 68.0116 232.865 67.3952 234.097 66.1623C235.33 64.8978 235.947 63.254 235.947 61.2308V60.8988C235.947 59.5395 235.662 58.3224 235.093 57.2476C234.524 56.1728 233.75 55.3351 232.77 54.7345C231.79 54.1338 230.715 53.8335 229.545 53.8335C227.522 53.8335 225.957 54.4974 224.851 55.8251C223.744 57.1212 223.191 58.8124 223.191 60.8988C223.191 63.0169 223.729 64.7397 224.803 66.0674C225.91 67.3635 227.49 68.0116 229.545 68.0116Z" fill="white"/>
<path d="M257.819 72.3267C255.859 72.3267 254.041 71.8683 252.366 70.9515C250.722 70.0032 249.394 68.6754 248.383 66.9684C247.403 65.2297 246.913 63.2065 246.913 60.8988C246.913 57.4531 247.877 54.7028 249.805 52.648C251.733 50.5616 254.341 49.5184 257.629 49.5184C259.463 49.5184 261.138 49.9768 262.655 50.8936C264.173 51.7787 265.2 52.8535 265.738 54.118L265.501 50.4194V37H270.527V71.8525H265.643L265.548 68.0116C265.011 69.1496 264.031 70.1612 262.608 71.0464C261.186 71.8999 259.589 72.3267 257.819 72.3267ZM258.672 68.0116C260.474 68.0116 261.992 67.3952 263.225 66.1623C264.457 64.8978 265.074 63.254 265.074 61.2308V60.8988C265.074 59.5395 264.789 58.3224 264.22 57.2476C263.651 56.1728 262.877 55.3351 261.897 54.7345C260.917 54.1338 259.842 53.8335 258.672 53.8335C256.649 53.8335 255.084 54.4974 253.978 55.8251C252.872 57.1212 252.318 58.8124 252.318 60.8988C252.318 63.0169 252.856 64.7397 253.931 66.0674C255.037 67.3635 256.618 68.0116 258.672 68.0116Z" fill="white"/>
<path d="M283.579 72.5163L274.57 50.0875H280.355L285.002 63.9336L286.045 67.3003L287.088 63.9336L291.972 50.0875H297.568L284.196 83.8019H278.885L283.579 72.5163Z" fill="white"/>
<path d="M301.574 72.3267C300.626 72.3267 299.82 72.0105 299.156 71.3783C298.492 70.7144 298.16 69.9083 298.16 68.96C298.16 67.98 298.476 67.1739 299.109 66.5416C299.773 65.8778 300.594 65.5458 301.574 65.5458C302.554 65.5458 303.361 65.8778 303.993 66.5416C304.657 67.1739 304.989 67.98 304.989 68.96C304.989 69.9083 304.657 70.7144 303.993 71.3783C303.361 72.0105 302.554 72.3267 301.574 72.3267Z" fill="white"/>
<path d="M315.374 72.3267C314.426 72.3267 313.619 72.0105 312.956 71.3783C312.292 70.7144 311.96 69.9083 311.96 68.96C311.96 67.98 312.276 67.1739 312.908 66.5416C313.572 65.8778 314.394 65.5458 315.374 65.5458C316.354 65.5458 317.16 65.8778 317.792 66.5416C318.456 67.1739 318.788 67.98 318.788 68.96C318.788 69.9083 318.456 70.7144 317.792 71.3783C317.16 72.0105 316.354 72.3267 315.374 72.3267Z" fill="white"/>
<path d="M321.598 73.8282C321.598 81.1028 315.701 87 308.426 87C301.152 87 295.254 81.1028 295.254 73.8282H299.206C299.206 78.9204 303.334 83.0485 308.426 83.0485C313.518 83.0485 317.646 78.9204 317.646 73.8282H321.598Z" fill="white"/>
</g>
<defs>
<filter id="filter0_d" x="14.0052" y="23.1202" width="68.6322" height="62.1998" filterUnits="userSpaceOnUse" color-interpolation-filters="sRGB">
<feFlood flood-opacity="0" result="BackgroundImageFix"/>
<feColorMatrix in="SourceAlpha" type="matrix" values="0 0 0 0 0 0 0 0 0 0 0 0 0 0 0 0 0 0 127 0"/>
<feOffset dy="4"/>
<feGaussianBlur stdDeviation="2"/>
<feColorMatrix type="matrix" values="0 0 0 0 0 0 0 0 0 0 0 0 0 0 0 0 0 0 0.25 0"/>
<feBlend mode="normal" in2="BackgroundImageFix" result="effect1_dropShadow"/>
<feBlend mode="normal" in="SourceGraphic" in2="effect1_dropShadow" result="shape"/>
</filter>
<filter id="filter1_d" x="33.2" y="26.4" width="28.3699" height="17.8667" filterUnits="userSpaceOnUse" color-interpolation-filters="sRGB">
<feFlood flood-opacity="0" result="BackgroundImageFix"/>
<feColorMatrix in="SourceAlpha" type="matrix" values="0 0 0 0 0 0 0 0 0 0 0 0 0 0 0 0 0 0 127 0"/>
<feOffset dy="4"/>
<feGaussianBlur stdDeviation="2"/>
<feColorMatrix type="matrix" values="0 0 0 0 0 0 0 0 0 0 0 0 0 0 0 0 0 0 0.25 0"/>
<feBlend mode="normal" in2="BackgroundImageFix" result="effect1_dropShadow"/>
<feBlend mode="normal" in="SourceGraphic" in2="effect1_dropShadow" result="shape"/>
</filter>
<filter id="filter2_d" x="94.944" y="21.6741" width="13.9116" height="18.8841" filterUnits="userSpaceOnUse" color-interpolation-filters="sRGB">
<feFlood flood-opacity="0" result="BackgroundImageFix"/>
<feColorMatrix in="SourceAlpha" type="matrix" values="0 0 0 0 0 0 0 0 0 0 0 0 0 0 0 0 0 0 127 0"/>
<feOffset dy="4"/>
<feGaussianBlur stdDeviation="2"/>
<feColorMatrix type="matrix" values="0 0 0 0 0 0 0 0 0 0 0 0 0 0 0 0 0 0 0.25 0"/>
<feBlend mode="normal" in2="BackgroundImageFix" result="effect1_dropShadow"/>
<feBlend mode="normal" in="SourceGraphic" in2="effect1_dropShadow" result="shape"/>
</filter>
<filter id="filter3_d" x="52.4857" y="19.0567" width="69.121" height="75.3779" filterUnits="userSpaceOnUse" color-interpolation-filters="sRGB">
<feFlood flood-opacity="0" result="BackgroundImageFix"/>
<feColorMatrix in="SourceAlpha" type="matrix" values="0 0 0 0 0 0 0 0 0 0 0 0 0 0 0 0 0 0 127 0"/>
<feOffset dy="4"/>
<feGaussianBlur stdDeviation="2"/>
<feColorMatrix type="matrix" values="0 0 0 0 0 0 0 0 0 0 0 0 0 0 0 0 0 0 0.25 0"/>
<feBlend mode="normal" in2="BackgroundImageFix" result="effect1_dropShadow"/>
<feBlend mode="normal" in="SourceGraphic" in2="effect1_dropShadow" result="shape"/>
</filter>
<filter id="filter4_d" x="69.0701" y="22.3573" width="14.0807" height="18.7906" filterUnits="userSpaceOnUse" color-interpolation-filters="sRGB">
<feFlood flood-opacity="0" result="BackgroundImageFix"/>
<feColorMatrix in="SourceAlpha" type="matrix" values="0 0 0 0 0 0 0 0 0 0 0 0 0 0 0 0 0 0 127 0"/>
<feOffset dy="4"/>
<feGaussianBlur stdDeviation="2"/>
<feColorMatrix type="matrix" values="0 0 0 0 0 0 0 0 0 0 0 0 0 0 0 0 0 0 0.25 0"/>
<feBlend mode="normal" in2="BackgroundImageFix" result="effect1_dropShadow"/>
<feBlend mode="normal" in="SourceGraphic" in2="effect1_dropShadow" result="shape"/>
</filter>
<filter id="filter5_d" x="42" y="37" width="283.598" height="58" filterUnits="userSpaceOnUse" color-interpolation-filters="sRGB">
<feFlood flood-opacity="0" result="BackgroundImageFix"/>
<feColorMatrix in="SourceAlpha" type="matrix" values="0 0 0 0 0 0 0 0 0 0 0 0 0 0 0 0 0 0 127 0"/>
<feOffset dy="4"/>
<feGaussianBlur stdDeviation="2"/>
<feColorMatrix type="matrix" values="0 0 0 0 0 0 0 0 0 0 0 0 0 0 0 0 0 0 0.25 0"/>
<feBlend mode="normal" in2="BackgroundImageFix" result="effect1_dropShadow"/>
<feBlend mode="normal" in="SourceGraphic" in2="effect1_dropShadow" result="shape"/>
</filter>
</defs>
</svg>
