<svg width="87" height="140" viewBox="0 0 87 140" fill="none" xmlns="http://www.w3.org/2000/svg">
<mask id="path-1-inside-1" fill="white">
<path fill-rule="evenodd" clip-rule="evenodd" d="M5.88909 73.841L43.7176 0L81.1754 73.9534C84.8797 80.4309 87 87.9523 87 95.9748C87 120.289 67.5244 140 43.5 140C19.4756 140 0 120.289 0 95.9748C0 87.9058 2.14488 80.3439 5.88909 73.841Z"/>
</mask>
<path fill-rule="evenodd" clip-rule="evenodd" d="M5.88909 73.841L43.7176 0L81.1754 73.9534C84.8797 80.4309 87 87.9523 87 95.9748C87 120.289 67.5244 140 43.5 140C19.4756 140 0 120.289 0 95.9748C0 87.9058 2.14488 80.3439 5.88909 73.841Z" fill="#AAFAFF"/>
<path d="M43.7176 0L45.5018 -0.9037L43.7277 -4.40624L41.9376 -0.911895L43.7176 0ZM5.88909 73.841L7.62232 74.839L7.64676 74.7965L7.6691 74.7529L5.88909 73.841ZM81.1754 73.9534L79.3912 74.8571L79.4141 74.9023L79.4392 74.9462L81.1754 73.9534ZM41.9376 -0.911895L4.10908 72.9291L7.6691 74.7529L45.4976 0.911895L41.9376 -0.911895ZM82.9596 73.0497L45.5018 -0.9037L41.9334 0.9037L79.3912 74.8571L82.9596 73.0497ZM79.4392 74.9462C82.9748 81.1286 85 88.3087 85 95.9748H89C89 87.5958 86.7847 79.7332 82.9115 72.9605L79.4392 74.9462ZM85 95.9748C85 119.207 66.3973 138 43.5 138V142C68.6515 142 89 121.371 89 95.9748H85ZM43.5 138C20.6027 138 2 119.207 2 95.9748H-2C-2 121.371 18.3485 142 43.5 142V138ZM2 95.9748C2 88.2644 4.04872 81.0455 7.62232 74.839L4.15586 72.8431C0.241037 79.6422 -2 87.5473 -2 95.9748H2Z" fill="white" mask="url(#path-1-inside-1)"/>
<path d="M36.7623 102.565C36.8852 105.639 34.1803 102.515 31.2698 102.565C28.3594 102.616 26.3456 105.823 26.2226 102.749C26.0997 99.6755 28.3594 97.1426 31.2698 97.0919C34.1803 97.0411 36.6393 99.4918 36.7623 102.565Z" fill="black"/>
<path d="M59.7623 102.565C59.8852 105.639 57.1803 102.515 54.2698 102.565C51.3594 102.616 49.3456 105.823 49.2226 102.749C49.0997 99.6755 51.3594 97.1426 54.2698 97.0919C57.1803 97.0411 59.6393 99.4918 59.7623 102.565Z" fill="black"/>
<path d="M40.6185 112.051L39.6388 111.098C39.4198 110.885 39.1019 110.809 38.8102 110.9C38.1405 111.108 38.0119 112 38.5955 112.389L40.0237 113.341C40.1015 113.393 40.1836 113.439 40.2691 113.476L40.7161 113.675C42.2741 114.368 44.0369 114.443 45.6483 113.886L46.6369 113.544C46.8748 113.462 47.0928 113.331 47.2769 113.159L48.4115 112.1C48.7671 111.768 48.687 111.184 48.2552 110.96C48.0112 110.834 47.7159 110.861 47.499 111.03L46.11 112.11C45.8461 112.315 45.5538 112.481 45.2421 112.602L44.7201 112.805C43.7112 113.198 42.5859 113.161 41.605 112.703L41.4771 112.643C41.1598 112.495 40.8696 112.295 40.6185 112.051Z" fill="black" stroke="black"/>
</svg>
